<svg width="534" height="254" viewBox="0 0 534 254" fill="none" xmlns="http://www.w3.org/2000/svg">
<path d="M170 0H364L358 150H170V0Z" fill="#6BBB49"/>
<path d="M185 17.4231L342 5.5L350 133.577L184 140.5L185 17.4231Z" fill="white"/>
<path d="M261.736 68.9586C240.225 66.7614 219.974 63.3443 208.02 54.7975C204.459 78.1349 211.955 94.5719 253.147 99.1719C291.486 103.453 319.803 71.9071 329.838 61.1582C329.838 61.1582 293.481 72.2011 261.736 68.9586Z" stroke="#6BBB49" stroke-width="4"/>
<path d="M21.9961 223V171.812H37.1133C41.6367 171.812 45.6445 172.82 49.1367 174.836C52.6523 176.852 55.3711 179.711 57.293 183.414C59.2148 187.117 60.1758 191.359 60.1758 196.141V198.707C60.1758 203.559 59.2031 207.824 57.2578 211.504C55.3359 215.184 52.582 218.02 48.9961 220.012C45.4336 222.004 41.3438 223 36.7266 223H21.9961ZM30.8906 178.984V215.898H36.6914C41.3555 215.898 44.9297 214.445 47.4141 211.539C49.9219 208.609 51.1992 204.414 51.2461 198.953V196.105C51.2461 190.551 50.0391 186.309 47.625 183.379C45.2109 180.449 41.707 178.984 37.1133 178.984H30.8906ZM98.9531 200.148H77.9297V215.898H102.504V223H69.0352V171.812H102.258V178.984H77.9297V193.117H98.9531V200.148ZM150.352 223H141.457L118.641 186.684V223H109.746V171.812H118.641L141.527 208.27V171.812H150.352V223ZM196.793 178.984H180.832V223H172.008V178.984H156.188V171.812H196.793V178.984ZM243.41 198.742C243.41 203.758 242.543 208.164 240.809 211.961C239.074 215.734 236.59 218.641 233.355 220.68C230.145 222.695 226.441 223.703 222.246 223.703C218.098 223.703 214.395 222.695 211.137 220.68C207.902 218.641 205.395 215.746 203.613 211.996C201.855 208.246 200.965 203.922 200.941 199.023V196.141C200.941 191.148 201.82 186.742 203.578 182.922C205.359 179.102 207.855 176.184 211.066 174.168C214.301 172.129 218.004 171.109 222.176 171.109C226.348 171.109 230.039 172.117 233.25 174.133C236.484 176.125 238.98 179.008 240.738 182.781C242.496 186.531 243.387 190.902 243.41 195.895V198.742ZM234.516 196.07C234.516 190.398 233.438 186.051 231.281 183.027C229.148 180.004 226.113 178.492 222.176 178.492C218.332 178.492 215.32 180.004 213.141 183.027C210.984 186.027 209.883 190.281 209.836 195.789V198.742C209.836 204.367 210.926 208.715 213.105 211.785C215.309 214.855 218.355 216.391 222.246 216.391C226.184 216.391 229.207 214.891 231.316 211.891C233.449 208.891 234.516 204.508 234.516 198.742V196.07ZM282.223 171.812L296.988 211.047L311.719 171.812H323.215V223H314.355V206.125L315.234 183.555L300.117 223H293.754L278.672 183.59L279.551 206.125V223H270.691V171.812H282.223ZM363.047 211.082H343.219L339.07 223H329.824L349.16 171.812H357.141L376.512 223H367.23L363.047 211.082ZM345.715 203.91H360.551L353.133 182.676L345.715 203.91ZM420.809 216.355C418.957 218.77 416.391 220.598 413.109 221.84C409.828 223.082 406.102 223.703 401.93 223.703C397.641 223.703 393.844 222.73 390.539 220.785C387.234 218.84 384.68 216.062 382.875 212.453C381.094 208.82 380.168 204.59 380.098 199.762V195.754C380.098 188.02 381.949 181.984 385.652 177.648C389.355 173.289 394.523 171.109 401.156 171.109C406.852 171.109 411.375 172.516 414.727 175.328C418.078 178.141 420.094 182.195 420.773 187.492H412.055C411.07 181.328 407.496 178.246 401.332 178.246C397.348 178.246 394.312 179.688 392.227 182.57C390.164 185.43 389.098 189.637 389.027 195.191V199.129C389.027 204.66 390.188 208.961 392.508 212.031C394.852 215.078 398.098 216.602 402.246 216.602C406.793 216.602 410.027 215.57 411.949 213.508V203.488H401.402V196.738H420.809V216.355ZM460.5 200.148H439.477V215.898H464.051V223H430.582V171.812H463.805V178.984H439.477V193.117H460.5V200.148ZM511.898 223H503.004L480.188 186.684V223H471.293V171.812H480.188L503.074 208.27V171.812H511.898V223Z" fill="#0394CB"/>
<path d="M260.531 223H251.988V184.961H260.531V223ZM251.461 175.082C251.461 173.77 251.871 172.68 252.691 171.812C253.535 170.945 254.73 170.512 256.277 170.512C257.824 170.512 259.02 170.945 259.863 171.812C260.707 172.68 261.129 173.77 261.129 175.082C261.129 176.371 260.707 177.449 259.863 178.316C259.02 179.16 257.824 179.582 256.277 179.582C254.73 179.582 253.535 179.16 252.691 178.316C251.871 177.449 251.461 176.371 251.461 175.082Z" fill="#6FCA5D"/>
<path d="M23.5101 246V232.99H27.1826C28.3145 232.99 29.3152 233.24 30.185 233.74C31.0547 234.241 31.7249 234.953 32.1955 235.876C32.672 236.799 32.9133 237.86 32.9192 239.057V239.888C32.9192 241.115 32.681 242.19 32.2044 243.114C31.7338 244.037 31.0577 244.746 30.176 245.24C29.3003 245.735 28.2787 245.988 27.1111 246H23.5101ZM25.2257 234.402V244.597H27.0307C28.3532 244.597 29.3808 244.186 30.1135 243.364C30.8521 242.542 31.2215 241.371 31.2215 239.852V239.093C31.2215 237.615 30.873 236.469 30.176 235.653C29.485 234.831 28.5021 234.414 27.2273 234.402H25.2257ZM41.3862 246H39.6706V232.99H41.3862V246ZM50.2821 244.597H56.4476V246H48.5575V232.99H50.2821V244.597ZM69.7844 239.986H64.1461V244.597H70.6959V246H62.4305V232.99H70.6065V234.402H64.1461V238.583H69.7844V239.986ZM80.6908 240.201C79.2194 239.778 78.1472 239.26 77.474 238.646C76.8068 238.027 76.4732 237.264 76.4732 236.359C76.4732 235.334 76.8813 234.488 77.6974 233.821C78.5195 233.148 79.5858 232.811 80.8963 232.811C81.7899 232.811 82.5852 232.984 83.2821 233.329C83.9851 233.675 84.5271 234.151 84.9084 234.759C85.2956 235.367 85.4892 236.031 85.4892 236.752H83.7646C83.7646 235.965 83.5144 235.349 83.0141 234.902C82.5137 234.449 81.8078 234.223 80.8963 234.223C80.0504 234.223 79.3892 234.411 78.9126 234.786C78.442 235.155 78.2067 235.671 78.2067 236.332C78.2067 236.862 78.4301 237.312 78.8769 237.681C79.3296 238.044 80.0951 238.378 81.1733 238.682C82.2575 238.986 83.1034 239.322 83.711 239.692C84.3246 240.055 84.7773 240.481 85.0692 240.969C85.3671 241.458 85.516 242.033 85.516 242.694C85.516 243.748 85.105 244.594 84.2829 245.232C83.4608 245.863 82.3618 246.179 80.9857 246.179C80.0921 246.179 79.2581 246.009 78.4837 245.669C77.7093 245.324 77.1106 244.853 76.6877 244.258C76.2707 243.662 76.0622 242.986 76.0622 242.229H77.7868C77.7868 243.016 78.0757 243.638 78.6535 244.097C79.2373 244.549 80.0147 244.776 80.9857 244.776C81.8912 244.776 82.5852 244.591 83.0677 244.222C83.5502 243.852 83.7915 243.349 83.7915 242.712C83.7915 242.074 83.5681 241.583 83.1213 241.237C82.6745 240.886 81.8644 240.54 80.6908 240.201ZM111.096 232.99L115.349 243.605L119.602 232.99H121.827V246H120.112V240.934L120.272 235.465L116.001 246H114.688L110.425 235.492L110.595 240.934V246H108.88V232.99H111.096ZM138.041 232.99V241.836C138.035 243.063 137.648 244.067 136.88 244.847C136.117 245.628 135.081 246.066 133.77 246.161L133.314 246.179C131.891 246.179 130.756 245.794 129.91 245.026C129.064 244.258 128.635 243.2 128.623 241.854V232.99H130.321V241.8C130.321 242.742 130.58 243.474 131.098 243.998C131.617 244.517 132.355 244.776 133.314 244.776C134.285 244.776 135.027 244.517 135.539 243.998C136.058 243.48 136.317 242.75 136.317 241.809V232.99H138.041ZM154.345 241.872C154.184 243.248 153.675 244.311 152.817 245.062C151.965 245.806 150.83 246.179 149.412 246.179C147.875 246.179 146.642 245.628 145.713 244.526C144.79 243.424 144.328 241.949 144.328 240.103V238.852C144.328 237.642 144.542 236.579 144.971 235.662C145.406 234.744 146.02 234.041 146.812 233.553C147.604 233.058 148.522 232.811 149.564 232.811C150.946 232.811 152.054 233.198 152.888 233.973C153.722 234.741 154.208 235.808 154.345 237.172H152.62C152.471 236.135 152.147 235.385 151.646 234.92C151.152 234.455 150.458 234.223 149.564 234.223C148.468 234.223 147.607 234.628 146.982 235.438C146.362 236.248 146.053 237.401 146.053 238.896V240.156C146.053 241.568 146.347 242.691 146.937 243.525C147.527 244.359 148.352 244.776 149.412 244.776C150.365 244.776 151.095 244.561 151.602 244.132C152.114 243.698 152.453 242.944 152.62 241.872H154.345ZM170.72 246H168.995V239.986H162.436V246H160.721V232.99H162.436V238.583H168.995V232.99H170.72V246ZM187.8 239.915C187.8 241.19 187.586 242.304 187.157 243.257C186.728 244.204 186.121 244.928 185.334 245.428C184.548 245.929 183.631 246.179 182.582 246.179C181.558 246.179 180.649 245.929 179.857 245.428C179.065 244.922 178.448 244.204 178.007 243.275C177.572 242.339 177.349 241.258 177.337 240.031V239.093C177.337 237.842 177.554 236.737 177.989 235.778C178.424 234.819 179.038 234.086 179.83 233.58C180.628 233.067 181.54 232.811 182.564 232.811C183.607 232.811 184.524 233.064 185.316 233.571C186.115 234.071 186.728 234.801 187.157 235.76C187.586 236.713 187.8 237.824 187.8 239.093V239.915ZM186.094 239.075C186.094 237.532 185.784 236.35 185.165 235.528C184.545 234.7 183.678 234.285 182.564 234.285C181.48 234.285 180.625 234.7 180 235.528C179.38 236.35 179.062 237.493 179.044 238.959V239.915C179.044 241.41 179.356 242.587 179.982 243.444C180.613 244.296 181.48 244.722 182.582 244.722C183.69 244.722 184.548 244.32 185.156 243.516C185.763 242.706 186.076 241.547 186.094 240.04V239.075ZM221.1 241.872C220.94 243.248 220.43 244.311 219.572 245.062C218.721 245.806 217.586 246.179 216.168 246.179C214.631 246.179 213.398 245.628 212.469 244.526C211.545 243.424 211.084 241.949 211.084 240.103V238.852C211.084 237.642 211.298 236.579 211.727 235.662C212.162 234.744 212.775 234.041 213.568 233.553C214.36 233.058 215.277 232.811 216.32 232.811C217.702 232.811 218.81 233.198 219.644 233.973C220.478 234.741 220.963 235.808 221.1 237.172H219.376C219.227 236.135 218.902 235.385 218.402 234.92C217.907 234.455 217.213 234.223 216.32 234.223C215.224 234.223 214.363 234.628 213.738 235.438C213.118 236.248 212.808 237.401 212.808 238.896V240.156C212.808 241.568 213.103 242.691 213.693 243.525C214.283 244.359 215.108 244.776 216.168 244.776C217.121 244.776 217.851 244.561 218.357 244.132C218.87 243.698 219.209 242.944 219.376 241.872H221.1ZM237.484 239.915C237.484 241.19 237.27 242.304 236.841 243.257C236.412 244.204 235.804 244.928 235.018 245.428C234.232 245.929 233.314 246.179 232.266 246.179C231.241 246.179 230.333 245.929 229.541 245.428C228.748 244.922 228.132 244.204 227.691 243.275C227.256 242.339 227.033 241.258 227.021 240.031V239.093C227.021 237.842 227.238 236.737 227.673 235.778C228.108 234.819 228.721 234.086 229.514 233.58C230.312 233.067 231.223 232.811 232.248 232.811C233.291 232.811 234.208 233.064 235 233.571C235.798 234.071 236.412 234.801 236.841 235.76C237.27 236.713 237.484 237.824 237.484 239.093V239.915ZM235.778 239.075C235.778 237.532 235.468 236.35 234.848 235.528C234.229 234.7 233.362 234.285 232.248 234.285C231.164 234.285 230.309 234.7 229.684 235.528C229.064 236.35 228.745 237.493 228.727 238.959V239.915C228.727 241.41 229.04 242.587 229.666 243.444C230.297 244.296 231.164 244.722 232.266 244.722C233.374 244.722 234.232 244.32 234.839 243.516C235.447 242.706 235.76 241.547 235.778 240.04V239.075ZM254.083 246H252.358L245.808 235.974V246H244.084V232.99H245.808L252.376 243.06V232.99H254.083V246ZM273.554 240.201C272.083 239.778 271.011 239.26 270.337 238.646C269.67 238.027 269.337 237.264 269.337 236.359C269.337 235.334 269.745 234.488 270.561 233.821C271.383 233.148 272.449 232.811 273.76 232.811C274.653 232.811 275.449 232.984 276.146 233.329C276.848 233.675 277.391 234.151 277.772 234.759C278.159 235.367 278.353 236.031 278.353 236.752H276.628C276.628 235.965 276.378 235.349 275.877 234.902C275.377 234.449 274.671 234.223 273.76 234.223C272.914 234.223 272.253 234.411 271.776 234.786C271.305 235.155 271.07 235.671 271.07 236.332C271.07 236.862 271.294 237.312 271.74 237.681C272.193 238.044 272.959 238.378 274.037 238.682C275.121 238.986 275.967 239.322 276.574 239.692C277.188 240.055 277.641 240.481 277.933 240.969C278.23 241.458 278.379 242.033 278.379 242.694C278.379 243.748 277.968 244.594 277.146 245.232C276.324 245.863 275.225 246.179 273.849 246.179C272.956 246.179 272.122 246.009 271.347 245.669C270.573 245.324 269.974 244.853 269.551 244.258C269.134 243.662 268.926 242.986 268.926 242.229H270.65C270.65 243.016 270.939 243.638 271.517 244.097C272.101 244.549 272.878 244.776 273.849 244.776C274.755 244.776 275.449 244.591 275.931 244.222C276.414 243.852 276.655 243.349 276.655 242.712C276.655 242.074 276.431 241.583 275.985 241.237C275.538 240.886 274.728 240.54 273.554 240.201ZM294.62 239.915C294.62 241.19 294.406 242.304 293.977 243.257C293.548 244.204 292.94 244.928 292.154 245.428C291.368 245.929 290.45 246.179 289.402 246.179C288.377 246.179 287.469 245.929 286.677 245.428C285.884 244.922 285.268 244.204 284.827 243.275C284.392 242.339 284.169 241.258 284.157 240.031V239.093C284.157 237.842 284.374 236.737 284.809 235.778C285.244 234.819 285.858 234.086 286.65 233.58C287.448 233.067 288.359 232.811 289.384 232.811C290.427 232.811 291.344 233.064 292.136 233.571C292.934 234.071 293.548 234.801 293.977 235.76C294.406 236.713 294.62 237.824 294.62 239.093V239.915ZM292.914 239.075C292.914 237.532 292.604 236.35 291.984 235.528C291.365 234.7 290.498 234.285 289.384 234.285C288.3 234.285 287.445 234.7 286.82 235.528C286.2 236.35 285.881 237.493 285.863 238.959V239.915C285.863 241.41 286.176 242.587 286.802 243.444C287.433 244.296 288.3 244.722 289.402 244.722C290.51 244.722 291.368 244.32 291.975 243.516C292.583 242.706 292.896 241.547 292.914 240.04V239.075ZM302.944 244.597H309.11V246H301.22V232.99H302.944V244.597ZM324.511 239.915C324.511 241.19 324.296 242.304 323.867 243.257C323.439 244.204 322.831 244.928 322.045 245.428C321.258 245.929 320.341 246.179 319.292 246.179C318.268 246.179 317.359 245.929 316.567 245.428C315.775 244.922 315.158 244.204 314.717 243.275C314.283 242.339 314.059 241.258 314.047 240.031V239.093C314.047 237.842 314.265 236.737 314.7 235.778C315.134 234.819 315.748 234.086 316.54 233.58C317.339 233.067 318.25 232.811 319.275 232.811C320.317 232.811 321.234 233.064 322.027 233.571C322.825 234.071 323.439 234.801 323.867 235.76C324.296 236.713 324.511 237.824 324.511 239.093V239.915ZM322.804 239.075C322.804 237.532 322.494 236.35 321.875 235.528C321.255 234.7 320.389 234.285 319.275 234.285C318.19 234.285 317.336 234.7 316.71 235.528C316.091 236.35 315.772 237.493 315.754 238.959V239.915C315.754 241.41 316.067 242.587 316.692 243.444C317.324 244.296 318.19 244.722 319.292 244.722C320.4 244.722 321.258 244.32 321.866 243.516C322.473 242.706 322.786 241.547 322.804 240.04V239.075ZM357.4 232.99V241.836C357.394 243.063 357.006 244.067 356.238 244.847C355.476 245.628 354.439 246.066 353.128 246.161L352.673 246.179C351.249 246.179 350.114 245.794 349.268 245.026C348.422 244.258 347.994 243.2 347.982 241.854V232.99H349.679V241.8C349.679 242.742 349.938 243.474 350.457 243.998C350.975 244.517 351.714 244.776 352.673 244.776C353.644 244.776 354.385 244.517 354.898 243.998C355.416 243.48 355.675 242.75 355.675 241.809V232.99H357.4ZM374.132 246H372.407L365.858 235.974V246H364.133V232.99H365.858L372.425 243.06V232.99H374.132V246ZM388.55 242.604H383.099L381.875 246H380.106L385.074 232.99H386.575L391.552 246H389.792L388.55 242.604ZM383.618 241.193H388.041L385.825 235.108L383.618 241.193ZM418.294 240.201C416.822 239.778 415.75 239.26 415.077 238.646C414.41 238.027 414.076 237.264 414.076 236.359C414.076 235.334 414.484 234.488 415.3 233.821C416.122 233.148 417.189 232.811 418.499 232.811C419.393 232.811 420.188 232.984 420.885 233.329C421.588 233.675 422.13 234.151 422.511 234.759C422.898 235.367 423.092 236.031 423.092 236.752H421.367C421.367 235.965 421.117 235.349 420.617 234.902C420.116 234.449 419.411 234.223 418.499 234.223C417.653 234.223 416.992 234.411 416.515 234.786C416.045 235.155 415.81 235.671 415.81 236.332C415.81 236.862 416.033 237.312 416.48 237.681C416.932 238.044 417.698 238.378 418.776 238.682C419.86 238.986 420.706 239.322 421.314 239.692C421.927 240.055 422.38 240.481 422.672 240.969C422.97 241.458 423.119 242.033 423.119 242.694C423.119 243.748 422.708 244.594 421.886 245.232C421.064 245.863 419.965 246.179 418.588 246.179C417.695 246.179 416.861 246.009 416.087 245.669C415.312 245.324 414.713 244.853 414.29 244.258C413.874 243.662 413.665 242.986 413.665 242.229H415.39C415.39 243.016 415.678 243.638 416.256 244.097C416.84 244.549 417.617 244.776 418.588 244.776C419.494 244.776 420.188 244.591 420.67 244.222C421.153 243.852 421.394 243.349 421.394 242.712C421.394 242.074 421.171 241.583 420.724 241.237C420.277 240.886 419.467 240.54 418.294 240.201ZM439.36 239.915C439.36 241.19 439.145 242.304 438.716 243.257C438.287 244.204 437.68 244.928 436.894 245.428C436.107 245.929 435.19 246.179 434.141 246.179C433.117 246.179 432.208 245.929 431.416 245.428C430.624 244.922 430.007 244.204 429.566 243.275C429.131 242.339 428.908 241.258 428.896 240.031V239.093C428.896 237.842 429.114 236.737 429.548 235.778C429.983 234.819 430.597 234.086 431.389 233.58C432.187 233.067 433.099 232.811 434.123 232.811C435.166 232.811 436.083 233.064 436.876 233.571C437.674 234.071 438.287 234.801 438.716 235.76C439.145 236.713 439.36 237.824 439.36 239.093V239.915ZM437.653 239.075C437.653 237.532 437.343 236.35 436.724 235.528C436.104 234.7 435.237 234.285 434.123 234.285C433.039 234.285 432.184 234.7 431.559 235.528C430.939 236.35 430.621 237.493 430.603 238.959V239.915C430.603 241.41 430.916 242.587 431.541 243.444C432.173 244.296 433.039 244.722 434.141 244.722C435.249 244.722 436.107 244.32 436.715 243.516C437.322 242.706 437.635 241.547 437.653 240.04V239.075ZM455.958 246H454.233L447.684 235.974V246H445.959V232.99H447.684L454.251 243.06V232.99H455.958V246ZM467.803 240.737H464.747V246H463.022V232.99H467.329C468.794 232.99 469.92 233.323 470.707 233.991C471.499 234.658 471.895 235.629 471.895 236.904C471.895 237.714 471.675 238.42 471.234 239.021C470.799 239.623 470.191 240.073 469.411 240.371L472.467 245.893V246H470.626L467.803 240.737ZM464.747 239.334H467.383C468.235 239.334 468.911 239.114 469.411 238.673C469.917 238.232 470.171 237.642 470.171 236.904C470.171 236.099 469.929 235.483 469.447 235.054C468.97 234.625 468.279 234.408 467.374 234.402H464.747V239.334ZM480.174 246H478.459V232.99H480.174V246ZM491.179 240.201C489.708 239.778 488.635 239.26 487.962 238.646C487.295 238.027 486.962 237.264 486.962 236.359C486.962 235.334 487.37 234.488 488.186 233.821C489.008 233.148 490.074 232.811 491.385 232.811C492.278 232.811 493.073 232.984 493.77 233.329C494.473 233.675 495.015 234.151 495.397 234.759C495.784 235.367 495.977 236.031 495.977 236.752H494.253C494.253 235.965 494.003 235.349 493.502 234.902C493.002 234.449 492.296 234.223 491.385 234.223C490.539 234.223 489.877 234.411 489.401 234.786C488.93 235.155 488.695 235.671 488.695 236.332C488.695 236.862 488.918 237.312 489.365 237.681C489.818 238.044 490.583 238.378 491.662 238.682C492.746 238.986 493.592 239.322 494.199 239.692C494.813 240.055 495.266 240.481 495.558 240.969C495.855 241.458 496.004 242.033 496.004 242.694C496.004 243.748 495.593 244.594 494.771 245.232C493.949 245.863 492.85 246.179 491.474 246.179C490.58 246.179 489.746 246.009 488.972 245.669C488.198 245.324 487.599 244.853 487.176 244.258C486.759 243.662 486.55 242.986 486.55 242.229H488.275C488.275 243.016 488.564 243.638 489.142 244.097C489.726 244.549 490.503 244.776 491.474 244.776C492.379 244.776 493.073 244.591 493.556 244.222C494.038 243.852 494.28 243.349 494.28 242.712C494.28 242.074 494.056 241.583 493.61 241.237C493.163 240.886 492.353 240.54 491.179 240.201ZM509.422 242.604H503.971L502.747 246H500.977L505.946 232.99H507.447L512.424 246H510.664L509.422 242.604ZM504.489 241.193H508.912L506.696 235.108L504.489 241.193Z" fill="#A9B59F"/>
</svg>
