<svg id="Grupo_203" data-name="Grupo 203" xmlns="http://www.w3.org/2000/svg" width="24.642" height="21.301" viewBox="0 0 24.642 21.301">
  <ellipse id="Elipse_7" data-name="Elipse 7" cx="10.283" cy="10.283" rx="10.283" ry="10.283" transform="translate(0.446 0.552)" fill="#fff"/>
  <path id="Trazado_389" data-name="Trazado 389" d="M204.932,475.935a10.671,10.671,0,0,1-10.743-10.558,10.508,10.508,0,0,1,10.743-10.743h2.761a10.879,10.879,0,0,1,11.138,10.743c0,5.81-5.314,10.558-11.138,10.558Zm.023-20.42a9.75,9.75,0,1,0,9.751,9.751A9.75,9.75,0,0,0,204.955,455.515Zm-2.213,15.517V459.5a6.175,6.175,0,0,0,0,11.533Zm8.394-5.766a6.187,6.187,0,0,0-3.969-5.768v11.537A6.187,6.187,0,0,0,211.136,465.266Z" transform="translate(-194.189 -454.634)" fill="#004a98"/>
</svg>
