<svg id="Grupo_200" data-name="Grupo 200" xmlns="http://www.w3.org/2000/svg" width="51.998" height="14.265" viewBox="0 0 51.998 14.265">
  <path id="Trazado_370" data-name="Trazado 370" d="M298.7,393.95l.607-1.459h3.255l.6,1.459h3.18v-5.127l2.273,5.127h1.373l2.268-5.123.006,5.123h1.6v-6.541h-2.6l-1.88,4.438-2.046-4.437h-2.552V393.6l-2.659-6.194H299.8L297,393.95Zm2.228-5.43,1.07,2.608h-2.134Z" transform="translate(-297 -387.409)" fill="#1271cd"/>
  <path id="Trazado_371" data-name="Trazado 371" d="M335.982,389.171a1.527,1.527,0,0,0-.791-1.449,3.687,3.687,0,0,0-1.893-.313h-3.6v6.541h1.564v-2.379h1.679a1.529,1.529,0,0,1,1.139.28,1.965,1.965,0,0,1,.247,1.275l.006.825h1.577v-1.284a1.884,1.884,0,0,0-.259-1.2,1.811,1.811,0,0,0-.773-.551A1.843,1.843,0,0,0,335.982,389.171Zm-2.044.918a1.454,1.454,0,0,1-.774.135h-1.9v-1.453h1.925a1.6,1.6,0,0,1,.741.118.6.6,0,0,1,.329.578A.669.669,0,0,1,333.938,390.089Z" transform="translate(-305.366 -387.409)" fill="#1271cd"/>
  <path id="Trazado_372" data-name="Trazado 372" d="M326.449,388.771v-1.362h-5.223v6.541h5.223V392.6H322.79v-1.306h3.572V389.95H322.79v-1.179Z" transform="translate(-303.198 -387.409)" fill="#1271cd"/>
  <rect id="Rectángulo_189" data-name="Rectángulo 189" width="1.595" height="6.541" transform="translate(31.523 0)" fill="#1271cd"/>
  <path id="Trazado_373" data-name="Trazado 373" d="M358.673,391.965l-2.748-4.556h-2.381V393.6l-2.647-6.188h-2.343l-2.2,5.144h-.7a1.506,1.506,0,0,1-1.089-.337,2.268,2.268,0,0,1-.43-1.536,2.162,2.162,0,0,1,.449-1.482,1.507,1.507,0,0,1,1.2-.387h1.482v-1.4H345.75a3.175,3.175,0,0,0-2.375.763,3.481,3.481,0,0,0-.842,2.558,2.77,2.77,0,0,0,3.1,3.221h1.829l.591-1.459H351.3l.609,1.459H355.1v-4.909l2.963,4.909h2.215v-6.541h-1.6Zm-10.061-.837,1.076-2.608,1.082,2.608Z" transform="translate(-308.649 -387.409)" fill="#1271cd"/>
  <path id="Trazado_374" data-name="Trazado 374" d="M354.231,402.926H351.2v1.4h3.045c1.577,0,2.457-.657,2.457-2.064a1.821,1.821,0,0,0-.467-1.386,2.524,2.524,0,0,0-1.786-.526l-.842-.023a1.8,1.8,0,0,1-.608-.074.549.549,0,0,1-.108-.958,1.061,1.061,0,0,1,.627-.118h2.868v-1.393h-3.134c-1.639,0-2.236,1-2.236,1.948,0,2.07,1.831,1.975,3.294,2.025a.823.823,0,0,1,.557.145.562.562,0,0,1,.191.433.581.581,0,0,1-.185.426A.919.919,0,0,1,354.231,402.926Z" transform="translate(-310.818 -390.064)" fill="#1271cd"/>
  <path id="Trazado_375" data-name="Trazado 375" d="M362.45,402.926h-3.033v1.4h3.045c1.577,0,2.457-.657,2.457-2.064a1.818,1.818,0,0,0-.468-1.386,2.52,2.52,0,0,0-1.785-.526l-.842-.023a1.8,1.8,0,0,1-.608-.074.549.549,0,0,1-.108-.958,1.061,1.061,0,0,1,.627-.118H364.6v-1.393h-3.134c-1.639,0-2.236,1-2.236,1.948,0,2.07,1.831,1.975,3.294,2.025a.825.825,0,0,1,.557.145.562.562,0,0,1,.19.433.581.581,0,0,1-.185.426A.919.919,0,0,1,362.45,402.926Z" transform="translate(-312.921 -390.064)" fill="#1271cd"/>
  <path id="Trazado_376" data-name="Trazado 376" d="M348.208,399.139v-1.353H342.99v6.543h5.218v-1.358l-3.661-.006v-1.3h3.572v-1.335h-3.572v-1.19Z" transform="translate(-308.766 -390.064)" fill="#1271cd"/>
  <path id="Trazado_377" data-name="Trazado 377" d="M339.661,399.547a1.532,1.532,0,0,0-.8-1.453,3.873,3.873,0,0,0-1.881-.309h-3.61v6.543h1.571v-2.389h1.671a1.516,1.516,0,0,1,1.147.29c.291.3.253.887.253,1.281v.819h1.569v-1.3a1.9,1.9,0,0,0-.259-1.194,1.7,1.7,0,0,0-.766-.549A1.831,1.831,0,0,0,339.661,399.547Zm-2.052.927a1.5,1.5,0,0,1-.772.135h-1.9V399.14h1.925a1.548,1.548,0,0,1,.746.118.624.624,0,0,1,.324.589A.707.707,0,0,1,337.609,400.474Z" transform="translate(-306.303 -390.064)" fill="#1271cd"/>
  <path id="Trazado_378" data-name="Trazado 378" d="M318.618,397.786l-1.988,2.145-1.924-2.145h-6.289v6.543h6.194l2-2.165,1.925,2.165h3.039v-2.195h1.951c1.366,0,2.723-.375,2.723-2.193s-1.395-2.155-2.635-2.155Zm-4.8,5.179h-3.844v-1.3h3.433v-1.335h-3.433v-1.19h3.92l1.71,1.907Zm6.2.768-2.4-2.665,2.4-2.58Zm4.552-3.792c0,.566-.374.864-.975.864h-2.02V399.14h2.039C324.179,399.14,324.571,399.37,324.571,399.941Z" transform="translate(-299.921 -390.064)" fill="#1271cd"/>
</svg>
