<?xml version="1.0" encoding="iso-8859-1"?>
<!-- Generator: Adobe Illustrator 19.0.0, SVG Export Plug-In . SVG Version: 6.00 Build 0)  -->
<svg version="1.1" id="Capa_1" xmlns="http://www.w3.org/2000/svg" xmlns:xlink="http://www.w3.org/1999/xlink" x="0px" y="0px"
	 viewBox="0 0 503.583 503.583" style="enable-background:new 0 0 503.583 503.583;" xml:space="preserve">
<g>
	<g>
		<path d="M425.3,260.75c-12.5-4.4-25.7-6.6-38.9-6.6c-44.4,0-85.1,25.1-104.8,64.9c-0.3-0.1-0.7-0.3-1-0.4c-9.7-4-20-6-30.5-5.9
			H207v-14.9c12.6-5.4,24-13.2,33.6-22.9c15.6-15.5,26.2-35.4,30.5-56.9c13.4-1.1,23.7-12.2,23.7-25.7c-0.1-12.6-9.3-23.3-21.7-25.4
			v-12.3c6.6,2.7,13.7,4.1,20.8,4.1c30.3,0.1,55-24.5,55-54.8c0-17.9-8.7-34.8-23.4-45.1c-0.6-0.4-1.3-0.9-2-1.3l-0.8-0.5
			c-0.1,0-0.1-0.1-0.2-0.1c-21.7-13.1-49.6-9.6-67.5,8.4c-15.9-24.2-40.6-41.2-68.9-47.5c-7.8-1.7-15.8-2.6-23.9-2.6
			c-36.9,0-71.5,18.4-92.1,49.1c-1.1,1-2,2.3-2.4,3.7c-10.7,17.4-16.5,37.5-16.7,58.1v41.3c-11.1,3.1-18.7,13.3-18.6,24.8
			c0,12.3,8.6,22.9,20.7,25.3c7.3,37.1,32.9,67.9,67.9,82v13.2H78.8c-43.2,0-78.8,34.8-78.8,77.9v83.9c0,4.4,4.1,8.2,8.5,8.2h154.9
			l182.8-0.9c0.5,0,0.9-0.1,1.4-0.2c61,21.5,127.9-10.6,149.3-71.6C518.4,349.05,486.3,282.15,425.3,260.75z M48.4,192.35
			c0-2.6,1.6-5,2.6-6.8v10.9c0,0.9,0.1,1.8,0.1,2.7C49.4,197.25,48.4,194.85,48.4,192.35z M278.7,192.35c0,3.8-2.3,7.3-5.8,8.9
			c0.1-1.6,0.1-3.2,0.1-4.8v-13C277,185.05,278.7,188.35,278.7,192.35z M327.3,123.95c-9,14.8-26.7,21.9-43.5,17.4l48.9-33.1
			C332.1,113.85,330.2,119.25,327.3,123.95z M322.6,77.45c3.4,3.8,6.1,8.2,7.8,13l-57.4,38.8v-3.1c0-3.7-0.1-7.4-0.5-11.1
			L322.6,77.45z M308.8,67.85l-39.4,29.6c-1.6-5.9-3.7-11.7-6.2-17.3C273.9,66.25,292.6,61.25,308.8,67.85z M95.1,59.05
			c17.8-17.9,41.9-27.9,67.1-27.8c2.6,0,5.1,0.1,7.7,0.3c-27.9,26.8-57.8,32.4-79,32.1C92.3,62.05,93.7,60.55,95.1,59.05z
			 M79.9,78.95c4.3,0.4,8.6,0.7,12.9,0.7c26.3,0,63.1-8.1,96-44.6c6.1,1.8,12,4.2,17.7,7.2c-22,34-51.9,54-89.2,59.5
			c-15.4,2.2-31.1,1.9-46.5-1C72.9,93.05,75.9,85.75,79.9,78.95z M67,126.15c0.1-3.3,0.3-6.5,0.7-9.7c9.6,1.8,19.4,2.7,29.2,2.7
			c7.4,0,14.7-0.5,22-1.5c29.5-4.2,70.4-19.3,101.1-66.8c11,8.4,20.1,19.1,26.5,31.4c0.2,0.7,0.6,1.3,1,1.9c4.3,8.7,7.2,18,8.6,27.5
			c0.7,4.8,1,9.6,1,14.5v4.8c-21-16.5-27.7-39.8-27.8-40.1c-0.8-3.2-3.4-5.5-6.6-6c-3.3-0.5-6.5,1.1-8.2,3.9
			c-38.8,67.1-123.5,55.2-147.5,50.5V126.15z M67,196.45v-40.9c13.1,2.4,26.4,3.5,39.8,3.6c35.5,0,82.2-8.9,112.8-49.1
			c8.3,16.7,21.3,30.7,37.4,40.1v46.2c0,52.5-42.5,95-95,95S67,248.95,67,196.45z M155.1,466.75H155H16v-76.1
			c0-34.4,28.5-61.9,62.8-61.9H86v31.6c-7.6,1.5-14.6,5.2-20,10.7c-7.5,7.4-11.9,17.4-12,27.9v44.1c0,4.4,3.9,7.6,8.4,7.6H75
			c4.4,0,8-3.6,8-8c0-4.4-3.6-8-8-8h-5v-35.7c0.2-12.9,10.7-23.2,23.6-23.3H94c12.7-0.1,23,10.1,23.1,22.8c0,0.2,0,0.3,0,0.5v35.8
			h-7.3c-4.4,0-8,3.6-8,8c0,4.4,3.6,8,8,8h15.8c4,0.1,7.4-3,7.5-7c0-0.2,0-0.4,0-0.6v-44.1c0-19.2-13-35.2-31-38.8v-31.5H126
			l29.1,30V466.75z M163.2,344.15l-26.2-27v-12.6c17.8,4.1,36.4,3.8,54-1v13.5L163.2,344.15z M171,466.55v-107.7l31.6-30.1H222v62.2
			c-17.4,4.5-28,22.2-23.5,39.7c4.5,17.4,22.2,28,39.7,23.5c17.4-4.5,28-22.2,23.5-39.7c-1.5-5.7-4.4-10.9-8.6-15
			c-4.1-4.2-9.3-7.1-15.1-8.5v-62.2h12.1c8.3-0.1,16.6,1.5,24.3,4.7c0.4,0.1,0.8,0.2,1.2,0.3c-16.3,48.5,0.6,101.9,41.9,132.2
			L171,466.55z M230.3,405.95c9,0,16.3,7.3,16.3,16.3s-7.3,16.3-16.3,16.3s-16.3-7.3-16.3-16.3S221.3,405.95,230.3,405.95z
			 M388.2,472.35c-0.6-0.1-1.2-0.1-1.8-0.1c-55.8,0-101.1-45.3-101.1-101.1c0-55.8,45.3-101,101.1-101
			c55.8,0,101.1,45.3,101.1,101.1C488,426.55,443.5,471.85,388.2,472.35z"/>
	</g>
</g>
<g>
	<g>
		<path d="M425.2,306.95c-2.6-0.3-5.1-0.4-7.5-0.2c-6.5,0.5-12.9,1.6-19.2,3.4c-4.3,1.2-6.8,5.6-5.6,9.8c1.2,4.2,5.4,6.7,9.7,5.6
			c5.3-1.5,10.8-2.4,16.3-2.9c13.2-1,24.7,8.9,25.7,22c0.1,1.5,0.1,2.9-0.1,4.4c-2.1,18.7-8.7,47.6-28.2,81.3l-16.3-30
			c-2.2-4-6.4-6.4-10.9-6.3c-4.5,0.1-8.5,2.7-10.5,6.7l-14.6,29.2c-19.3-33.5-25.8-62.2-27.9-80.8c-1.4-13.2,8.2-25,21.4-26.4
			c1.1-0.1,2.1-0.2,3.2-0.1c1.5,1.7,3,3.5,4.3,5.4c8,10.7,21.5,28.5,48.4,25.1c4.4-0.5,7.5-4.5,6.9-8.9c-0.5-4.4-4.5-7.5-8.9-6.9
			c-17.7,2.2-26.6-9.5-33.6-18.9c-4.5-6-8.4-11.1-14.7-11.6c-22-1.7-41.3,14.7-43,36.8c-0.2,2.5-0.2,4.9,0.1,7.4
			c2.4,21.3,10.1,54.9,33.7,93.4c3.5,5.7,10.9,7.5,16.6,4.1c2-1.2,3.5-2.9,4.6-5l14.5-28.9l16,29.4c2,3.8,5.9,6.3,10.3,6.4
			c0.1,0,0.2,0,0.4,0c4.2,0,8.2-2.2,10.4-5.8c23.7-38.8,31.5-72.4,33.9-93.7C463,329.05,447.1,309.35,425.2,306.95z"/>
	</g>
</g>
<g>
	<g>
		<path d="M136,183.05c-4.4,0-8,3.6-8,8v4.4c0,5.3-4.3,9.6-9.6,9.6c-2.5,0-4.9-1-6.7-2.8s-2.7-4.3-2.7-6.8v-4.4c0-4.4-3.6-8-8-8
			c-4.4,0-8,3.6-8,8v4.4c-0.1,6.8,2.6,13.3,7.3,18.1v0.1c10,10,26.3,9.9,36.2-0.1c4.8-4.8,7.5-11.3,7.5-18.1v-4.4
			C144,186.65,140.4,183.05,136,183.05z"/>
	</g>
</g>
<g>
	<g>
		<path d="M224,183.15c-4.4,0-8,3.6-8,8v4.4c-0.1,5.3-4.4,9.6-9.7,9.6c-2.5,0-4.9-1-6.6-2.8c-1.8-1.8-2.8-4.3-2.7-6.9v-4.4
			c0-4.4-3.6-8-8-8c-4.4,0-8,3.6-8,8v4.4c0,6.8,2.6,13.3,7.4,18.1c4.7,4.9,11.2,7.6,17.9,7.6c14.1,0,25.6-11.5,25.7-25.6v-4.4
			C232,186.75,228.4,183.15,224,183.15z"/>
	</g>
</g>
<g>
</g>
<g>
</g>
<g>
</g>
<g>
</g>
<g>
</g>
<g>
</g>
<g>
</g>
<g>
</g>
<g>
</g>
<g>
</g>
<g>
</g>
<g>
</g>
<g>
</g>
<g>
</g>
<g>
</g>
</svg>
