<svg xmlns="http://www.w3.org/2000/svg" xmlns:xlink="http://www.w3.org/1999/xlink" width="46.685" height="15.077" viewBox="0 0 46.685 15.077">
  <defs>
    <linearGradient id="linear-gradient" y1="0.5" x2="1" y2="0.5" gradientUnits="objectBoundingBox">
      <stop offset="0" stop-color="#1a1e5a"/>
      <stop offset="1" stop-color="#122d98"/>
    </linearGradient>
  </defs>
  <path id="Trazado_348" data-name="Trazado 348" d="M317.82,276.422,311.708,291h-3.987l-3.008-11.637a1.6,1.6,0,0,0-.9-1.281,15.805,15.805,0,0,0-3.722-1.24l.091-.423H306.6a1.757,1.757,0,0,1,1.739,1.487l1.588,8.439,3.925-9.926Zm15.625,9.821c.016-3.848-5.323-4.06-5.285-5.779.011-.524.51-1.079,1.6-1.222a7.114,7.114,0,0,1,3.72.653l.661-3.091a10.112,10.112,0,0,0-3.528-.648c-3.729,0-6.353,1.983-6.375,4.821-.024,2.1,1.873,3.27,3.3,3.968,1.469.714,1.963,1.172,1.957,1.812-.01.978-1.173,1.41-2.257,1.427a7.883,7.883,0,0,1-3.875-.922l-.683,3.2a11.44,11.44,0,0,0,4.2.775c3.962,0,6.555-1.958,6.568-4.99M343.29,291h3.49l-3.045-14.582h-3.221a1.718,1.718,0,0,0-1.606,1.07L333.248,291h3.961l.787-2.177h4.84Zm-4.209-5.166,1.985-5.476,1.144,5.476Zm-15.87-9.416L320.091,291h-3.772l3.121-14.582Z" transform="translate(-300.095 -276.155)" fill="url(#linear-gradient)"/>
</svg>
